<svg fill="none" xmlns="http://www.w3.org/2000/svg" viewBox="0 0 16 16" class="design-iconfont">
  <path d="M13.5527 7.03027C13.6812 7.03028 13.8052 7.07563 13.9004 7.15723C13.9955 7.23896 14.055 7.35165 14.0674 7.47266L14.0703 7.51953V7.56738C14.0701 10.1696 12.1979 12.3593 9.64941 13.0215H11.1387C11.2713 13.0215 11.399 13.0698 11.4951 13.1562C11.5913 13.243 11.6489 13.3618 11.6553 13.4873C11.6616 13.6127 11.6171 13.736 11.5303 13.8311C11.4434 13.9261 11.3207 13.9859 11.1885 13.998L11.1387 14H5.27637C5.14352 13.9999 5.01509 13.9519 4.91895 13.8652C4.8228 13.7785 4.76615 13.6597 4.75977 13.5342C4.75341 13.4087 4.79789 13.2854 4.88477 13.1904C4.97166 13.0954 5.09436 13.0356 5.22656 13.0234L5.27637 13.0215H6.4209C3.87227 12.3595 2.00017 10.1698 2 7.56738C2 7.43763 2.05435 7.31245 2.15137 7.2207C2.24825 7.12919 2.37968 7.07824 2.5166 7.07812C2.65371 7.07812 2.78582 7.12906 2.88281 7.2207C2.97983 7.31245 3.03418 7.43763 3.03418 7.56738C3.03439 10.1521 5.27253 12.249 8.03516 12.249C10.7615 12.2489 12.9761 10.2067 13.0342 7.66895L13.0352 7.51953C13.0352 7.38984 13.0905 7.26553 13.1875 7.17383C13.2845 7.08222 13.4157 7.03031 13.5527 7.03027ZM8.03516 1C10.2253 1.0001 12.001 2.67956 12.001 4.75098V7.19336C12.001 9.26477 10.2253 10.9442 8.03516 10.9443C5.84489 10.9443 4.06934 9.26484 4.06934 7.19336V4.75098C4.06934 2.6795 5.84489 1 8.03516 1ZM8.03516 1.97852C7.25775 1.97852 6.51165 2.27018 5.96191 2.79004C5.41217 3.30997 5.10352 4.01569 5.10352 4.75098V7.19336C5.10352 7.92865 5.41217 8.63437 5.96191 9.1543C6.51165 9.67419 7.25773 9.96582 8.03516 9.96582C8.81237 9.96577 9.55776 9.67397 10.1074 9.1543C10.6572 8.63437 10.9668 7.92865 10.9668 7.19336V4.75098C10.9668 4.38704 10.8904 4.02668 10.7432 3.69043C10.5958 3.35407 10.3796 3.04748 10.1074 2.79004C9.8354 2.53288 9.51255 2.3287 9.15723 2.18945C8.80163 2.05015 8.42005 1.97854 8.03516 1.97852Z" fill="#fff" fill-opacity=".7"/>
</svg>
