<svg fill="none" xmlns="http://www.w3.org/2000/svg" viewBox="0 0 16 16" class="design-iconfont">
  <path d="M8.74658 4.6383H3.57158L5.49033 2.79455C5.59033 2.7008 5.59033 2.5383 5.49658 2.4383L5.15283 2.0758C5.05908 1.9758 4.89658 1.9758 4.79658 2.06955L1.79033 4.95705C1.69033 5.05705 1.69033 5.21955 1.79033 5.31955L4.79658 8.2008C4.89658 8.29455 5.05283 8.29455 5.15283 8.19455L5.49658 7.83205C5.59033 7.73205 5.59033 7.5758 5.49033 7.4758L3.57158 5.6383H8.74658C10.7841 5.6383 12.4341 7.30705 12.4028 9.3508C12.3716 11.3571 10.6966 12.9508 8.69033 12.9508H3.64033C3.50283 12.9508 3.39033 13.0633 3.39033 13.2008V13.7008C3.39033 13.8383 3.50283 13.9508 3.64033 13.9508H8.69033C11.2528 13.9508 13.3778 11.9008 13.4028 9.3383C13.4278 6.7508 11.3278 4.6383 8.74658 4.6383Z" fill="#fff" fill-opacity=".7"/>
</svg>
